<svg width="29" height="29" viewBox="0 0 29 29" fill="none" xmlns="http://www.w3.org/2000/svg">
<g clip-path="url(#clip0)">
<path d="M14.4783 0.976624C6.69943 0.976624 0.391296 7.09918 0.391296 14.6492C0.391296 22.1991 6.69943 28.3217 14.4783 28.3217C22.2571 28.3217 28.5652 22.1991 28.5652 14.6492C28.5652 7.09918 22.2571 0.976624 14.4783 0.976624ZM20.9102 11.637C20.9164 11.7716 20.9194 11.9068 20.9194 12.0426C20.9194 16.1894 17.6672 20.9714 11.7198 20.9716H11.72H11.7198C9.8938 20.9716 8.19462 20.4521 6.7637 19.5619C7.0167 19.5909 7.27421 19.6053 7.53494 19.6053C9.04991 19.6053 10.4441 19.1037 11.5508 18.2619C10.1354 18.2365 8.942 17.3292 8.53016 16.0822C8.72727 16.1189 8.92997 16.139 9.13782 16.139C9.43295 16.139 9.71883 16.1004 9.99053 16.0284C8.51103 15.7409 7.39651 14.4718 7.39651 12.9522C7.39651 12.938 7.39651 12.9253 7.39694 12.9121C7.83265 13.1473 8.3309 13.2887 8.8614 13.3046C7.99321 12.7423 7.42252 11.7812 7.42252 10.6924C7.42252 10.1174 7.58266 9.5787 7.86038 9.11493C9.45487 11.0138 11.8378 12.2627 14.5251 12.3939C14.4697 12.164 14.4411 11.9245 14.4411 11.6783C14.4411 9.94589 15.8892 8.54037 17.6748 8.54037C18.6049 8.54037 19.4449 8.92195 20.0349 9.53197C20.7716 9.39094 21.4633 9.12974 22.0881 8.77028C21.8463 9.50276 21.3339 10.1174 20.6662 10.506C21.3203 10.4301 21.9437 10.2617 22.523 10.0118C22.0903 10.6412 21.5415 11.1941 20.9102 11.637Z" fill="white"/>
</g>
<defs>
<clipPath id="clip0">
<rect width="28.1739" height="27.3451" fill="white" transform="translate(0.391296 0.976624)"/>
</clipPath>
</defs>
</svg>
