<svg width="30" height="29" viewBox="0 0 30 29" fill="none" xmlns="http://www.w3.org/2000/svg">
<path d="M15.3914 0.976624C7.32325 0.976624 0.782593 7.09814 0.782593 14.6492C0.782593 21.4217 6.04935 27.0304 12.9549 28.1165V17.5017H9.43086V13.6819H12.9549V10.8653C12.9549 7.59723 15.0876 5.81633 18.203 5.81633C19.6951 5.81633 20.9774 5.92039 21.3496 5.96622V9.38221L19.1889 9.38319C17.495 9.38319 17.1684 10.1364 17.1684 11.2421V13.6799H21.2102L20.683 17.4998H17.1684V28.2078C24.3964 27.3845 30 21.6329 30 14.6453C30 7.09814 23.4593 0.976624 15.3914 0.976624Z" fill="white"/>
</svg>
