<svg width="109" height="56" viewBox="0 0 109 56" fill="none" xmlns="http://www.w3.org/2000/svg">
<mask id="mask0" mask-type="alpha" maskUnits="userSpaceOnUse" x="0" y="22" width="34" height="34">
<path fill-rule="evenodd" clip-rule="evenodd" d="M0 22.534H33.0023V55.9715H0V22.534Z" fill="white"/>
</mask>
<g mask="url(#mask0)">
<path fill-rule="evenodd" clip-rule="evenodd" d="M25.1009 48.6153C18.1294 49.3505 16.2698 47.8807 16.2698 47.8807L22.0017 43.2513V27.3812C22.0017 26.6466 25.1009 28.4848 25.1009 28.4848V48.6153ZM33.0023 26.7955C33.0023 26.7955 28.1984 26.6465 26.2647 22.534C26.2647 22.534 21.7696 27.3084 14.7998 28.9976L15.2635 30.1723V45.3829L13.9454 46.6304C13.9454 46.6304 8.65411 43.3946 8.21475 38.5475C7.81696 34.1359 8.51637 30.8161 13.7038 26.5546C13.7038 26.5546 15.4179 25.1057 18.0522 24.2216V23.7093C9.68957 23.7093 -6.10352e-05 30.9069 -6.10352e-05 39.2855C-6.10352e-05 47.5878 6.64791 52.5078 15.4179 52.5078C15.4179 52.5078 20.9971 52.5557 25.1271 50.4016V52.4688C25.1324 52.6381 24.7898 52.6065 24.7898 52.6065C23.597 52.6065 22.6263 53.3592 22.6263 54.2918C22.6263 55.216 23.597 55.9715 24.7898 55.9715C25.9844 55.9715 26.9552 55.216 26.9552 54.2918V49.6066C26.9552 49.6066 28.1236 48.762 28.5096 48.4663C28.8961 48.1735 28.5867 47.5878 28.1236 47.734C27.6581 47.8807 26.957 48.1735 26.957 48.1735V28.7048C26.957 28.7048 30.989 29.071 33.0023 26.7955Z" fill="white"/>
</g>
<path fill-rule="evenodd" clip-rule="evenodd" d="M78.804 10.5734C78.4585 10.4791 78.2126 10.4791 78.0167 10.6191C77.1766 11.2256 76.438 11.6014 75.8437 11.6471C75.2529 11.695 74.8106 11.8829 74.5143 12.2558L73.923 12.7715C73.8719 12.8652 73.6255 13.0068 72.8388 13.0965C72.6916 13.1907 72.2475 13.4238 72.4428 13.6596C72.6916 13.9897 72.938 14.3626 73.1309 14.7356C73.3286 15.5305 73.1814 16.3729 72.3947 17.169C72.0955 17.4968 71.7018 17.5888 71.209 17.5431C70.9632 17.4968 70.6658 17.3529 70.6658 17.0753C70.7145 16.7938 70.8136 16.5608 71.1105 16.3729C71.605 15.7664 71.6051 15.2484 71.0618 14.7835C70.6658 14.5934 70.2727 14.5934 69.8767 14.7835C69.0876 15.1113 68.9909 15.7664 69.4831 16.3729C69.4831 16.5608 69.4326 16.7938 69.334 17.0753C69.1381 17.4494 68.7932 17.5431 68.349 17.4968C67.6099 17.1216 67.2649 16.4671 67.3635 15.3426C67.7066 14.8292 68.0997 14.3626 68.4987 13.9897C68.0516 13.2381 67.4121 12.6773 66.6225 12.3038C65.8328 12.6773 65.1934 13.2381 64.7493 13.9897C65.1423 14.4061 65.4855 14.8292 65.6856 15.3426C65.7818 16 65.7337 16.6544 65.1934 17.2593C64.7012 17.5888 64.2042 17.7761 63.7114 17.4968C63.3659 17.169 63.3659 16.7938 63.5642 16.3729C63.9092 15.86 63.8611 15.3426 63.3659 14.9234C62.9746 14.6419 62.4801 14.6899 62.1321 14.9234C61.6399 15.2941 61.6904 15.7664 62.0817 16.3729C62.1321 16.6065 62.0817 16.8418 62.0336 16.9817C61.6399 17.7761 61.0486 17.6853 60.3581 17.4009C59.1243 16.2792 59.1748 15.1113 60.6068 13.9897C60.8984 13.6116 60.7565 13.1907 60.2084 13.0965C59.1748 12.8195 58.2871 12.398 57.6928 11.6014C57.1038 10.4312 56.3148 10.4312 55.7211 11.6014C55.1291 12.3495 54.1922 12.8195 53.2054 13.0965C52.6622 13.1907 52.5125 13.6116 52.7631 13.9417C54.2385 15.1113 54.2385 16.2307 53.0582 17.4009C52.3653 17.6853 51.774 17.7304 51.3803 16.9817C51.2835 16.7938 51.2835 16.6065 51.3316 16.3249C51.7253 15.7664 51.774 15.2484 51.2835 14.9234C50.8899 14.6899 50.444 14.6419 49.9993 14.9234C49.5065 15.2941 49.5065 15.86 49.8497 16.3729C49.9993 16.7458 49.9993 17.1216 49.7054 17.4494C49.1621 17.7304 48.718 17.5888 48.2252 17.2593C47.6844 16.6065 47.6357 16 47.7301 15.3426C47.9284 14.7835 48.2733 14.3626 48.6189 13.9417C48.2252 13.2381 47.5852 12.6773 46.7427 12.2558C46.0041 12.6773 45.3641 13.2381 44.8671 13.9417C45.316 14.3626 45.7072 14.7835 46.0041 15.3426C46.1519 16.4186 45.8088 17.1216 45.0672 17.4494C44.5726 17.5431 44.23 17.4494 44.0317 17.0279C43.9842 16.7938 43.935 16.5608 43.935 16.3729C44.426 15.7664 44.2758 15.1113 43.5395 14.7835C43.1453 14.5934 42.7499 14.5934 42.3058 14.7835C41.8136 15.2484 41.7625 15.7664 42.2547 16.3729C42.5522 16.5608 42.6994 16.7938 42.6994 17.0279C42.7499 17.3529 42.453 17.4968 42.1562 17.5431C41.664 17.5888 41.3184 17.4494 41.0215 17.169C40.1844 16.3729 40.0348 15.5305 40.2319 14.6899C40.4302 14.3141 40.676 13.9897 40.9735 13.6596C41.1712 13.4238 40.7271 13.1417 40.5287 13.0965C39.7421 12.9594 39.4957 12.8652 39.4957 12.7715L38.9002 12.2079C38.557 11.8829 38.1129 11.695 37.572 11.6471C36.9753 11.6014 36.1886 11.2256 35.3508 10.6191C35.1525 10.4791 34.9044 10.4791 34.6093 10.5734C34.3635 10.8069 34.3154 11.0405 34.4116 11.2741C37.4752 13.8497 38.5083 16.8418 38.7547 18.3832H74.6639C74.9103 16.8418 75.9458 13.8497 78.9536 11.3198C79.1003 11.0405 79.0522 10.8069 78.804 10.5734Z" fill="white"/>
<mask id="mask1" mask-type="alpha" maskUnits="userSpaceOnUse" x="36" y="0" width="41" height="12">
<path fill-rule="evenodd" clip-rule="evenodd" d="M36.4872 0H76.8305V11.3942H36.4872V0Z" fill="white"/>
</mask>
<g mask="url(#mask1)">
<path fill-rule="evenodd" clip-rule="evenodd" d="M56.7082 3.97461C57.4011 3.97461 57.939 4.63192 57.939 5.47372C57.939 6.3144 57.4011 7.01741 56.7082 7.01741C56.0171 7.01741 55.4234 6.3144 55.4234 5.47372C55.4234 4.63192 56.0171 3.97461 56.7082 3.97461ZM37.1734 10.1044C38.1127 10.3396 39.0496 10.6217 39.841 11.0861C40.3819 11.226 40.9198 11.0861 41.4179 10.8062C43.5874 9.17002 46.0532 7.81422 48.9642 6.96959C49.4083 6.82967 49.6547 6.96959 49.5069 7.39049C48.3723 8.23343 47.5375 9.30938 47.0423 10.7131C47.0423 11.1318 47.3368 11.3197 47.9763 11.274C48.4714 11.1318 48.8651 11.178 49.1619 11.3682C49.606 11.4618 49.9492 11.3197 50.2455 10.6669C50.5424 8.84165 51.7257 7.57837 53.454 6.68974C54.2383 6.59834 54.5862 6.92332 54.4847 7.6269C53.847 8.28138 53.3525 8.97988 53.1548 9.73084C53.2052 10.4316 53.5989 10.6669 54.2383 10.4796C54.6367 10.4796 54.9336 10.1517 55.18 9.54296C55.8194 8.42074 57.4949 8.42074 58.1373 9.54296C58.3837 10.1517 58.6824 10.4796 59.0249 10.4796C59.7155 10.6669 60.1097 10.4316 60.1602 9.73084C59.9642 8.97988 59.472 8.28138 58.8302 7.6269C58.7305 6.92332 59.0736 6.59834 59.8633 6.68974C61.5916 7.57837 62.7773 8.84165 63.0694 10.6669C63.3152 11.3197 63.7112 11.4618 64.1049 11.3682C64.4522 11.178 64.8465 11.1318 65.3386 11.274C65.9811 11.3197 66.2773 11.1318 66.2773 10.7131C65.7851 9.30938 64.945 8.23343 63.8128 7.39049C63.6631 6.96959 63.9095 6.82967 64.3531 6.96959C67.2647 7.81422 69.7269 9.17002 71.9023 10.8062C72.3945 11.0861 72.9378 11.226 73.4763 11.0861C74.2677 10.6217 75.1559 10.3396 76.1415 10.1044C76.7353 10.0096 76.9312 9.58866 76.7833 8.93418C76.3392 8.32708 75.6974 7.95132 74.8104 7.8554C74.466 7.90336 74.1692 7.81422 73.9228 7.57837C73.3795 6.68974 72.3945 6.3608 71.0622 6.55038C70.4198 5.84511 69.5316 5.70801 68.5952 5.75146C67.7545 4.91134 66.8206 4.81994 65.8332 5.005C64.7491 4.34995 63.7623 4.11637 62.9269 4.5384C61.5412 4.02271 60.3579 4.21059 59.3711 4.81994C59.0249 4.11637 58.5333 3.60124 57.7437 3.32196V2.48015H59.0249V1.26371H57.7437V-0.00012207H55.573V1.26371H54.2888V2.48015H55.573V3.32196C54.7839 3.60124 54.2383 4.11637 53.9438 4.81994C52.9107 4.21059 51.7761 4.02271 50.3951 4.5384C49.5069 4.11637 48.5195 4.34995 47.4864 5.005C46.4967 4.81994 45.5598 4.91134 44.7203 5.75146C43.7353 5.70801 42.8969 5.84511 42.2551 6.55038C40.9198 6.3608 39.9402 6.68974 39.3969 7.57837C39.1487 7.81422 38.8519 7.90336 38.5057 7.8554C37.6199 7.95132 36.9757 8.32708 36.5339 8.93418C36.3867 9.58866 36.5844 10.0096 37.1734 10.1044Z" fill="white"/>
</g>
<path fill-rule="evenodd" clip-rule="evenodd" d="M42.7478 21.4236C43.2911 21.4236 43.7352 21.8473 43.7352 22.3602C43.7352 22.8753 43.2911 23.299 42.7478 23.299C42.2045 23.299 41.7628 22.8753 41.7628 22.3602C41.7628 21.8473 42.2045 21.4236 42.7478 21.4236ZM49.6547 21.4236C50.1973 21.4236 50.6414 21.8473 50.6414 22.3602C50.6414 22.8753 50.1973 23.299 49.6547 23.299C49.1132 23.299 48.6643 22.8753 48.6643 22.3602C48.6643 21.8473 49.1132 21.4236 49.6547 21.4236ZM56.7081 21.4236C57.2514 21.4236 57.6931 21.8473 57.6931 22.3602C57.6931 22.8753 57.2514 23.299 56.7081 23.299C56.1672 23.299 55.7214 22.8753 55.7214 22.3602C55.7214 21.8473 56.1672 21.4236 56.7081 21.4236ZM63.7622 21.4236C64.3055 21.4236 64.749 21.8473 64.749 22.3602C64.749 22.8753 64.3055 23.299 63.7622 23.299C63.2189 23.299 62.7772 22.8753 62.7772 22.3602C62.7772 21.8473 63.2189 21.4236 63.7622 21.4236ZM70.618 21.4236C71.1583 21.4236 71.6053 21.8473 71.6053 22.3602C71.6053 22.8753 71.1583 23.299 70.618 23.299C70.0741 23.299 69.6276 22.8753 69.6276 22.3602C69.6276 21.8473 70.0741 21.4236 70.618 21.4236ZM38.7544 23.9029H74.6637V20.7207H38.7544V23.9029Z" fill="white"/>
<path fill-rule="evenodd" clip-rule="evenodd" d="M38.7544 19.9765H74.6637V19.1336H38.7544V19.9765Z" fill="white"/>
<path fill-rule="evenodd" clip-rule="evenodd" d="M37.3376 44.5488C34.2431 43.9603 33.625 43.2991 33.625 43.2991V33.1923C33.625 32.9678 37.3376 34.4375 37.3376 34.4375V44.5488ZM41.9823 33.7713C41.9823 33.2223 42.7548 32.5949 42.7548 32.5949C39.8948 32.3038 35.3272 30.3257 35.3272 30.3257C32.773 32.3822 28.6739 32.604 28.6739 32.604C28.5962 33.0435 29.289 33.8498 29.289 33.8498V43.5943C29.289 43.5943 29.0599 43.6998 28.3409 44.5647C28.1182 44.8327 27.9757 45.1075 27.9757 45.1075C33.7022 45.6959 36.0249 48.5074 36.0249 48.5074C38.5761 45.7947 42.9091 45.2085 42.9091 45.2085C42.2133 44.9134 41.9823 43.9903 41.9823 43.8143V33.7713Z" fill="white"/>
<path fill-rule="evenodd" clip-rule="evenodd" d="M66.0311 44.5488C62.9366 43.9603 62.3162 43.2991 62.3162 43.2991V33.1923C62.3162 32.9678 66.0311 34.4375 66.0311 34.4375V44.5488ZM70.6735 33.7713C70.6735 33.2223 71.4459 32.5949 71.4459 32.5949C68.5829 32.3038 64.0178 30.3257 64.0178 30.3257C61.4636 32.3822 57.3645 32.604 57.3645 32.604C57.2855 33.0435 57.9825 33.8498 57.9825 33.8498V43.5943C57.9825 43.5943 57.751 43.6998 57.0338 44.5647C56.807 44.8327 56.6698 45.1075 56.6698 45.1075C62.3927 45.6959 64.713 48.5074 64.713 48.5074C67.2696 45.7947 71.6026 45.2085 71.6026 45.2085C70.905 44.9134 70.6735 43.9903 70.6735 43.8143V33.7713Z" fill="white"/>
<path fill-rule="evenodd" clip-rule="evenodd" d="M97.8311 44.5536C96.4412 43.5257 94.5045 42.843 94.5045 42.843V33.1724C94.6571 33.3574 97.8311 34.4198 97.8311 34.4198V44.5536ZM104.024 44.8927C102.879 44.7184 102.473 43.7795 102.473 43.4957V33.5475V32.4575C99.1468 31.4295 95.895 30.3259 95.895 30.3259C92.8005 32.089 89.4738 32.6036 89.4738 32.6036C89.399 33.0437 90.0943 33.8494 90.0943 33.8494V44.0797C90.0943 44.0797 89.969 44.2534 89.684 44.6202C89.5587 44.7776 89.3414 45.0275 89.2714 45.1099C92.5933 45.4925 96.25 48.5121 96.25 48.5121L98.9182 45.7943L101.925 48.5121L105.491 45.1099C105.491 45.1099 105.163 45.0591 104.024 44.8927Z" fill="white"/>
<path fill-rule="evenodd" clip-rule="evenodd" d="M51.8074 45.1101C48.7949 46.7582 47.9696 48.5072 47.9696 48.5072C47.9696 48.5072 47.1461 46.7582 44.1329 45.1101L45.5359 45.1191V34.5108C45.5359 33.9477 44.954 32.7003 43.5612 32.6038L47.4673 30.3255C47.4673 30.3255 49.9461 31.7197 50.3326 32.3087C50.3326 32.3087 49.8665 32.6591 53.0365 30.6759L53.5767 30.312C53.5767 30.312 55.5081 32.3837 57.0168 32.707C56.6333 34.0324 55.2261 35.6652 51.3491 33.6363C51.3491 33.6363 50.4098 33.4394 50.4098 34.0256V45.1101H51.8074Z" fill="white"/>
<path fill-rule="evenodd" clip-rule="evenodd" d="M87.6323 32.6038C86.0969 32.0384 83.2214 30.3142 83.2214 30.3142L82.6758 30.6855C79.5059 32.6653 78.7821 32.3815 78.7821 32.3815C78.3956 31.7958 75.9186 30.4039 75.9186 30.4039L72.1461 32.6038C73.5366 32.7003 74.1232 33.9483 74.1232 34.5108V45.1101L72.716 45.1028C75.7357 46.7514 76.5563 48.5072 76.5563 48.5072C76.5563 48.5072 77.3792 46.7587 80.3947 45.1101H78.9947V34.4194L81.0057 33.3367L82.5529 34.4194V45.1101H81.1505C84.1631 46.7587 84.8174 48.5123 84.8174 48.5123C84.8174 48.5123 85.6403 46.7587 88.6558 45.1101H87.2582L87.2457 33.9963C87.2457 33.9963 88.0182 32.7482 87.6323 32.6038Z" fill="white"/>
<path fill-rule="evenodd" clip-rule="evenodd" d="M106.698 48.7523C106.525 48.7523 106.228 48.7574 106.228 48.7574V48.2304H106.698C106.872 48.2304 107.075 48.2716 107.075 48.4866C107.075 48.6999 106.872 48.7523 106.698 48.7523ZM107.01 48.9955C107.01 48.9955 107.461 48.8923 107.461 48.4866C107.461 48.2006 107.254 47.9602 106.73 47.9602H105.87V49.8266H106.228V49.0435H106.619C106.619 49.0435 106.978 49.4232 107.176 49.8266H107.623C107.623 49.8266 107.312 49.272 107.01 48.9955Z" fill="white"/>
<path fill-rule="evenodd" clip-rule="evenodd" d="M105.115 48.9059C105.115 48.116 105.791 47.4706 106.626 47.4706C107.459 47.4706 108.137 48.116 108.137 48.9059C108.137 49.6986 107.459 50.3396 106.626 50.3396C105.791 50.3396 105.115 49.6986 105.115 48.9059ZM104.767 48.9059C104.767 49.8791 105.6 50.6713 106.626 50.6713C107.654 50.6713 108.487 49.8791 108.487 48.9059C108.487 47.9326 107.654 47.1427 106.626 47.1427C105.6 47.1427 104.767 47.9326 104.767 48.9059Z" fill="white"/>
</svg>
