<svg width="30" height="28" viewBox="0 0 30 28" fill="none" xmlns="http://www.w3.org/2000/svg">
<g clip-path="url(#clip0)">
<path d="M11.8125 13.6726C11.8125 15.1179 13.0644 16.2896 14.6087 16.2896C16.153 16.2896 17.4049 15.1179 17.4049 13.6726C17.4049 12.2272 16.153 11.0555 14.6087 11.0555C13.0644 11.0555 11.8125 12.2272 11.8125 13.6726Z" fill="white"/>
<path d="M8.06939 9.04228C8.20381 8.70139 8.41825 8.39283 8.69689 8.13956C8.9675 7.87878 9.29696 7.67808 9.66142 7.55227C9.957 7.44483 10.401 7.31694 11.2189 7.2821C12.1036 7.24434 12.3689 7.23621 14.6087 7.23621C16.8487 7.23621 17.114 7.24413 17.9985 7.2819C18.8164 7.31694 19.2606 7.44483 19.556 7.55227C19.9205 7.67808 20.2501 7.87878 20.5205 8.13956C20.7992 8.39283 21.0136 8.70118 21.1483 9.04228C21.2631 9.31892 21.3997 9.73471 21.4369 10.5002C21.4773 11.328 21.486 11.5763 21.486 13.6727C21.486 15.769 21.4773 16.0173 21.4369 16.8453C21.3997 17.6108 21.2631 18.0264 21.1483 18.303C21.0136 18.6441 20.7994 18.9524 20.5208 19.2057C20.2501 19.4665 19.9207 19.6672 19.5562 19.793C19.2606 19.9007 18.8164 20.0285 17.9985 20.0634C17.114 20.1011 16.849 20.1091 14.6089 20.1091C12.3687 20.1091 12.1034 20.1011 11.2191 20.0634C10.4013 20.0285 9.957 19.9007 9.66142 19.793C8.92983 19.5289 8.3516 18.9877 8.06939 18.303C7.95459 18.0264 7.81795 17.6108 7.7805 16.8453C7.74015 16.0173 7.73168 15.769 7.73168 13.6727C7.73168 11.5763 7.74015 11.328 7.7805 10.5002C7.81773 9.73471 7.95437 9.31892 8.06939 9.04228ZM14.6087 17.704C16.9878 17.704 18.9165 15.8992 18.9165 13.6725C18.9165 11.4459 16.9878 9.64104 14.6087 9.64104C12.2298 9.64104 10.3012 11.4459 10.3012 13.6725C10.3012 15.8992 12.2298 17.704 14.6087 17.704ZM10.1309 10.4238C10.6868 10.4238 11.1375 10.002 11.1375 9.48165C11.1375 8.96134 10.6868 8.53949 10.1309 8.53949C9.57493 8.53949 9.12421 8.96134 9.12421 9.48165C9.12443 10.002 9.57493 10.4238 10.1309 10.4238Z" fill="white"/>
<path d="M14.6087 0C22.6756 0 29.2174 6.12256 29.2174 13.6725C29.2174 21.2225 22.6756 27.3451 14.6087 27.3451C6.54178 27.3451 1.52588e-05 21.2225 1.52588e-05 13.6725C1.52588e-05 6.12256 6.54178 0 14.6087 0ZM6.27073 16.9094C6.31129 17.7451 6.45329 18.3157 6.6606 18.8152C7.09639 19.8698 7.98714 20.7035 9.11395 21.1113C9.64738 21.3053 10.2573 21.438 11.15 21.4762C12.0446 21.5144 12.3303 21.5236 14.6085 21.5236C16.8869 21.5236 17.1724 21.5144 18.0672 21.4762C18.9599 21.438 19.5698 21.3053 20.1032 21.1113C20.6632 20.9142 21.1701 20.6052 21.5892 20.2057C22.0158 19.8137 22.346 19.339 22.5566 18.8152C22.7639 18.3159 22.9059 17.7451 22.9465 16.9096C22.9877 16.0722 22.9973 15.8047 22.9973 13.6725C22.9973 11.5404 22.9877 11.2729 22.9467 10.4357C22.9061 9.59994 22.7644 9.02935 22.557 8.5299C22.3464 8.00603 22.016 7.53141 21.5892 7.1394C21.1703 6.73988 20.6632 6.43091 20.1035 6.23375C19.5698 6.03973 18.9602 5.90705 18.0672 5.86887C17.1726 5.83069 16.8869 5.82151 14.6087 5.82151C12.3306 5.82151 12.0448 5.83069 11.1502 5.86908C10.2573 5.90705 9.6476 6.03973 9.11395 6.23355C8.55423 6.4307 8.0471 6.73988 7.62803 7.1394C7.20138 7.53162 6.87103 8.00603 6.6606 8.5299C6.45307 9.02935 6.31129 9.59994 6.2705 10.4357C6.22971 11.2729 6.22012 11.5404 6.22012 13.6725C6.22012 15.8047 6.22971 16.0722 6.27073 16.9094Z" fill="white"/>
</g>
<defs>
<clipPath id="clip0">
<rect width="29.2174" height="27.3451" fill="white" transform="matrix(-1 0 0 1 29.2174 0)"/>
</clipPath>
</defs>
</svg>
